<?xml version="1.0" encoding="utf-8"?>
<!-- Generator: Adobe Illustrator 22.1.0, SVG Export Plug-In . SVG Version: 6.00 Build 0)  -->
<svg version="1.1" id="Layer_1" xmlns="http://www.w3.org/2000/svg" xmlns:xlink="http://www.w3.org/1999/xlink" x="0px" y="0px"
	 viewBox="0 0 184 61" style="enable-background:new 0 0 184 61;" xml:space="preserve">
<style type="text/css">
	.st0{fill:#FFFFFF;}
</style>
<title>TWS Logo</title>
<desc>Created with Sketch.</desc>
<g id="Symbols">
	<g id="Navigation_x2F_Top-White" transform="translate(-40.000000, -30.000000)">
		<g id="Top-Nav">
			<g id="TWS-Logo" transform="translate(40.000000, 30.000000)">
				<path id="Fill-1" class="st0" d="M23,40.6c0.3,0.4,1.5,1.6,3,3.3c-0.5-0.1-0.9-0.2-1.3-0.3l-2-2.6L23,40.6z M25.4,37.5l5.1,7.4
					c0.8,0.2,1.5,0.4,2.3,0.6l-7.2-8.4L25.4,37.5z M9.9,28l-5.6,6.6c0,2.9,0.4,5.7,1.3,8.4c0.3-0.1,0.7-0.2,1-0.2
					c2.2-0.4,4.4-0.6,6.8-0.6s4.9,0.2,7.7,0.6c-0.4-0.6-0.9-1.3-1.5-2.1L9.9,28z M28.3,33.7L28.3,33.7L28.1,34l0,0l8.8,12.7
					c1,0.3,2,0.5,3.1,0.7L28.3,33.7L28.3,33.7z M68.8,34.4c0,9.3-3,13.6-4.7,15.6c-0.8,1-1.7,1.8-2.6,2.5l-0.1,0.1
					c-7.1,5.3-18,4.8-28.1,1.8c-11.4-3.4-18.5-4.3-25-3.1c-0.5,0.1-1,0.2-1.4,0.3c-0.2,0.1-0.3,0.1-0.5,0.2H6.3
					C6.2,51.9,6,51.9,5.9,52H5.8c-0.1,0.1-0.2,0.1-0.4,0.2l0,0c-0.1,0.1-0.2,0.1-0.3,0.2c-1.2,0.9-0.9,2.1-0.6,2.7
					c-4.1-2.6-4.6-5.7-2-7.9C0.9,43.3,0,39,0,34.4C0,15.4,15.4,0,34.4,0S68.8,15.4,68.8,34.4z M66.9,34.4
					c0-17.9-14.5-32.5-32.5-32.5c-18,0-32.5,14.5-32.5,32.5c0,4.2,0.8,8.2,2.3,11.8c0.8-0.4,1.8-0.7,2.9-1c2.1-0.4,4.1-0.5,6.3-0.5
					c5.5,0,11.9,1.2,20.8,3.8c4.8,1.4,10.4,2.4,14.6,2.4C63.9,51,66.9,41.8,66.9,34.4z M30.1,55.9c-0.5-0.2-1.1-0.3-1.6-0.5
					c-1.2-0.3-2.3-0.6-3.4-0.9C21,53.5,17,53,13.8,53c-0.7,0-1.3,0-2,0.1s-1.3,0.2-2,0.3c-0.5,0.1-0.8,0.2-1.2,0.3l0,0
					c-0.1,0-0.3,0.1-0.4,0.1H8.1c-0.1,0-0.2,0.1-0.3,0.2l0,0c-0.1,0.1-0.2,0.1-0.3,0.2l0,0c-0.1,0.1-0.2,0.1-0.3,0.2
					c-0.8,0.7-0.8,1.4-0.6,2l0,0l0,0c0,0,1.1,0.8,4.5,1.4c-0.2-0.8,0.6-1.5,2.1-2c0.6-0.2,1.2-0.3,1.9-0.4c1.4-0.2,3.1-0.3,4.9-0.3
					c3,0,6.4,0.3,9.8,1C29.8,56.1,30.1,56.1,30.1,55.9L30.1,55.9z M40.9,13.2L21.2,38.9L10,24.1l-5.4,6.4
					C6.5,15.8,19.1,4.4,34.4,4.4c13.1,0,24.3,8.5,28.4,20.3l-6.2,8.9L40.9,13.2z M27.6,14.5c0-2.2-1.8-4-4-4s-4,1.8-4,4s1.8,4,4,4
					S27.6,16.7,27.6,14.5z M64.4,34.4c0,1.4-0.1,9.9-8.7,13.1c0.8-1.3,3.3-5.4,3.3-5.4l-0.2-0.2L54,48h-0.1
					c-0.3,0.1-0.6,0.1-0.9,0.2l0,0c-1.2,0.2-2.3,0.3-3.3,0.3l6.5-9.9L56,38.3l-8.1,10.1c-1.2,0-2.4-0.1-3.8-0.3l9.1-13.4l-0.1-0.2
					L42,47.8h-0.1c-0.3-0.1-0.6-0.1-0.9-0.2l0,0l0,0c-0.3-0.1-0.6-0.1-0.9-0.2v-4.1l-9.1-13l0,0l0.3-0.4l0,0l0,0
					c0,0,4.6,5.3,8.8,10.3v-4.4l-6.3-9.1l0,0l0.3-0.4l0,0l0,0c0,0.1,2.8,3.3,6,7.1v-4.6l-3.8-5.4l0,0l0.3-0.3l0,0l3.5,4v-4.2
					l-1.6-2.3l0,0l0.3-0.4l0,0c0,0,0.5,0.6,1.3,1.5v-3.1l0.9-1.2l0,0l15.7,20.5l0,0l7-10C64.2,29.8,64.4,32.1,64.4,34.4z M41.9,22.7
					l1.1-1.6l-0.3-0.3l-0.8,0.9V22.7z M41.9,28.8l3.3-4.7L45,23.9l-3.1,3.2V28.8z M41.9,35.8l5.8-8.3l-0.1-0.2l-5.7,6.2V35.8z
					 M50.4,31l-0.1-0.2l-8.4,9.4v3.1L50.4,31z"/>
				<polygon id="Fill-3" class="st0" points="74.9,1.8 87.2,1.8 87.2,4.6 82.7,4.6 82.7,17.3 79.4,17.3 79.4,4.6 74.9,4.6 				"/>
				<path id="Fill-5" class="st0" d="M88.7,1.8h3.2v6.4c0.4-0.8,1.5-1.7,3.2-1.7c2.1,0,3.7,1.2,3.7,3.6v7.3h-3.2V11
					c0-1.4-0.8-1.9-1.7-1.9c-1,0-2.1,0.9-2.1,2.8v5.4h-3.2L88.7,1.8L88.7,1.8z"/>
				<path id="Fill-7" class="st0" d="M110.7,15.1c-0.8,1.5-2.5,2.5-4.7,2.5c-3.3,0-5.5-2.1-5.5-5.6s2.3-5.6,5.4-5.6
					c3.5,0,5.2,2.6,5.2,5.6v0.8h-7.3c0,1.2,0.6,2.4,2.2,2.4c1.1,0,1.7-0.6,2-1.3L110.7,15.1z M103.8,10.9h4.1c0-1.5-0.9-2.2-2-2.2
					C104.6,8.7,103.9,9.6,103.8,10.9z"/>
				<path id="Fill-9" class="st0" d="M95.1,21.3l-3.9,15.5h-3.8c0,0-1.7-7.5-2.3-10.3H85c-0.6,2.8-2.4,10.3-2.4,10.3h-3.8l-3.9-15.5
					h3.4c0,0,2,8.7,2.5,11.6h0.1c0.6-2.9,2.7-11.6,2.7-11.6h3.1c0,0,2.1,8.7,2.7,11.6h0.1c0.6-2.9,2.6-11.6,2.6-11.6
					S95.1,21.3,95.1,21.3z"/>
				<path id="Fill-11" class="st0" d="M98,21c1.1,0,1.9,0.8,1.9,1.9c0,1-0.7,1.8-1.9,1.8s-1.9-0.8-1.9-1.8C96.1,21.7,96.9,21,98,21z
					 M96.5,36.8h3.2V26.2h-3.2V36.8z"/>
				<g id="Clip-14">
				</g>
				<polygon id="Fill-13" class="st0" points="102.1,36.8 105.3,36.8 105.3,21.3 102.1,21.3 				"/>
				<path id="Fill-15" class="st0" d="M114.7,27.6v-6.3h3.2v15.5h-3.1v-1.5c-0.6,1-1.6,1.8-3.5,1.8c-2.6,0-4.6-2.1-4.6-5.6
					c0-3.4,2.1-5.6,4.8-5.6C113,25.9,114.1,26.6,114.7,27.6z M114.7,31.2c0-1.9-1.2-2.8-2.4-2.8c-1.5,0-2.4,1.4-2.4,3.1
					c0,1.8,0.9,3.1,2.3,3.1c1.2,0,2.5-0.9,2.5-2.8V31.2z"/>
				<path id="Fill-16" class="st0" d="M129.9,34.6c-0.8,1.5-2.5,2.5-4.7,2.5c-3.3,0-5.5-2.1-5.5-5.6c0-3.4,2.3-5.6,5.4-5.6
					c3.5,0,5.2,2.6,5.2,5.6v0.8H123c0,1.2,0.6,2.4,2.2,2.4c1.1,0,1.7-0.6,2-1.3L129.9,34.6z M123,30.4h4.1c0-1.5-0.9-2.2-2-2.2
					C123.7,28.2,123,29.1,123,30.4z"/>
				<path id="Fill-17" class="st0" d="M138.9,29.1c-0.4-0.3-0.9-0.4-1.3-0.4c-1,0-2.5,0.7-2.5,3.1v4.9H132V26.2h3V28
					c0.6-1.4,1.6-2.1,3.2-2.1c0.4,0,0.9,0,1.3,0.2L138.9,29.1z"/>
				<path id="Fill-18" class="st0" d="M140.6,26.2h3.1v1.6c0.5-1,1.6-1.9,3.3-1.9c2.1,0,3.7,1.2,3.7,3.6v7.3h-3.2v-6.3
					c0-1.4-0.8-1.9-1.7-1.9c-1,0-2.1,0.9-2.1,2.8v5.4h-3.2L140.6,26.2L140.6,26.2z"/>
				<path id="Fill-19" class="st0" d="M162.2,34.6c-0.8,1.5-2.5,2.5-4.7,2.5c-3.3,0-5.5-2.1-5.5-5.6c0-3.4,2.3-5.6,5.4-5.6
					c3.5,0,5.2,2.6,5.2,5.6v0.8h-7.3c0,1.2,0.6,2.4,2.2,2.4c1.1,0,1.7-0.6,2-1.3L162.2,34.6z M155.3,30.4h4.1c0-1.5-0.9-2.2-2-2.2
					C156.1,28.2,155.4,29.1,155.3,30.4z"/>
				<path id="Fill-20" class="st0" d="M168.9,30.2c2.2,0.3,4.3,1,4.3,3.3c0,2.2-2,3.5-4.8,3.5c-2.6,0-4.6-1.1-4.9-3.1l3.1-0.5
					c0.1,0.9,0.9,1.3,1.9,1.3c0.8,0,1.5-0.3,1.5-1s-0.5-0.9-1.9-1.1c-2.1-0.3-4.2-0.9-4.2-3.3s2.3-3.4,4.6-3.4c2.4,0,4.3,1,4.6,2.8
					l-3.1,0.6c-0.1-0.8-0.7-1.2-1.6-1.2c-0.8,0-1.4,0.4-1.4,1C166.9,29.9,167.9,30.1,168.9,30.2"/>
				<path id="Fill-21" class="st0" d="M179.4,30.2c2.2,0.3,4.3,1,4.3,3.3c0,2.2-2,3.5-4.8,3.5c-2.6,0-4.6-1.1-4.9-3.1l3.1-0.5
					c0.1,0.9,0.9,1.3,1.9,1.3c0.8,0,1.5-0.3,1.5-1s-0.5-0.9-1.9-1.1c-2.1-0.3-4.2-0.9-4.2-3.3s2.3-3.4,4.6-3.4c2.4,0,4.3,1,4.6,2.8
					l-3.1,0.6c-0.1-0.8-0.7-1.2-1.6-1.2c-0.8,0-1.4,0.4-1.4,1C177.5,29.9,178.5,30.1,179.4,30.2"/>
				<path id="Fill-22" class="st0" d="M84,47c3.7,0.6,5.4,1.9,5.4,4.7c0,3-2.6,4.9-6.2,4.9c-3.9,0-6.3-2.2-6.4-4.7l3.3-0.5
					c0.2,1.5,1.2,2.6,3.1,2.6c1.6,0,2.9-0.6,2.9-2c0-1.1-0.8-1.7-3.3-2.1c-3.2-0.5-5.7-1.6-5.7-4.7c0-3.1,2.5-4.6,5.9-4.6
					c3.2,0,5.6,1.5,6.2,4.2l-3.4,0.7c-0.2-1.4-1.2-2.3-2.9-2.3c-1.7,0-2.5,0.7-2.5,1.7C80.4,46.2,81.5,46.6,84,47"/>
				<path id="Fill-23" class="st0" d="M101.4,51c0,3.5-2.2,5.6-5.5,5.6s-5.5-2.1-5.5-5.6s2.2-5.6,5.5-5.6
					C99.2,45.4,101.4,47.5,101.4,51 M98.2,51c0-1.8-0.7-3.2-2.3-3.2c-1.6,0-2.3,1.4-2.3,3.2s0.7,3.2,2.3,3.2S98.2,52.8,98.2,51"/>
				<path id="Fill-24" class="st0" d="M108.4,45.4c2.6,0,3.8,1.3,4.6,3l-2.9,1.1c-0.2-1.1-0.9-1.6-1.8-1.6c-1.5,0-2.1,1.6-2.1,3.1
					c0,1.4,0.5,3.1,2.1,3.1c1,0,1.5-0.6,1.8-1.5l2.9,1.1c-0.9,1.5-2.1,2.9-4.7,2.9c-3.2,0-5.4-2.1-5.4-5.6S105.1,45.4,108.4,45.4"/>
				<path id="Fill-25" class="st0" d="M116.1,40.4c1.1,0,1.9,0.8,1.9,1.9c0,1-0.7,1.8-1.9,1.8s-1.9-0.8-1.9-1.8
					C114.1,41.2,114.9,40.4,116.1,40.4z M114.5,56.2h3.2V45.7h-3.2V56.2z"/>
				<path id="Fill-26" class="st0" d="M129.7,54c-0.8,1.5-2.5,2.5-4.7,2.5c-3.3,0-5.5-2.1-5.5-5.6c0-3.4,2.3-5.6,5.4-5.6
					c3.5,0,5.2,2.6,5.2,5.6v0.8h-7.3c0,1.2,0.6,2.4,2.2,2.4c1.1,0,1.7-0.6,2-1.3L129.7,54z M122.7,49.9h4.1c0-1.5-0.9-2.2-2-2.2
					C123.5,47.7,122.8,48.5,122.7,49.9z"/>
				<path id="Fill-27" class="st0" d="M138.2,56.1c-0.6,0.3-1.5,0.5-2.4,0.5c-2.1,0-3.6-0.9-3.6-3.4V48h-1.7v-2.3h1.7v-3l3.2-1.4
					v4.4h2.3V48h-2.3v4.7c0,1.1,0.4,1.3,0.9,1.3s0.8-0.2,1.1-0.4L138.2,56.1z"/>
				<path id="Fill-28" class="st0" d="M140.9,60.7l1.6-4.3l-4.1-10.6h3.2c0,0,2,5.7,2.4,7.1l0,0c0.4-1.4,2.4-7.1,2.4-7.1h3l-5.6,15
					h-2.9V60.7z"/>
			</g>
		</g>
	</g>
</g>
</svg>
